<svg id="Layer_1" data-name="Layer 1" xmlns="http://www.w3.org/2000/svg" viewBox="0 0 255.12 141.73"><defs><style>.cls-1{fill:#202020;}</style></defs><title>Artboard 1</title><polygon class="cls-1" points="158.79 49.65 96.33 49.65 98.75 43.6 156.37 43.6 158.79 49.65"/><polygon class="cls-1" points="116.07 61.75 91.27 61.75 88.85 55.7 113.66 55.7 116.07 61.75"/><polygon class="cls-1" points="163.85 61.75 139.04 61.75 141.46 55.7 166.27 55.7 163.85 61.75"/><polygon class="cls-1" points="120.71 73.84 101.35 73.84 98.93 67.8 118.29 67.8 120.71 73.84"/><polygon class="cls-1" points="153.87 73.84 134.51 73.84 136.93 67.8 156.29 67.8 153.87 73.84"/><polygon class="cls-1" points="125.26 85.94 109.53 85.94 107.11 79.89 122.84 79.89 125.26 85.94"/><polygon class="cls-1" points="145.52 85.94 129.79 85.94 132.21 79.89 147.94 79.89 145.52 85.94"/><polygon class="cls-1" points="135.8 98.04 119.47 98.04 117.05 91.99 138.22 91.99 135.8 98.04"/></svg>