<svg id="Layer_1" data-name="Layer 1" xmlns="http://www.w3.org/2000/svg" viewBox="0 0 255.12 141.73"><defs><style>.cls-1{fill:#231f20;}.cls-2{fill:#202020;}</style></defs><title>Artboard 1 copy 2</title><path class="cls-1" d="M67.51,82a10.76,10.76,0,0,1-1.08,4.62,10.38,10.38,0,0,1-2.84,3.48,13,13,0,0,1-4.26,2.19A18.13,18.13,0,0,1,54,93c-.75,0-1.61,0-2.59-.13s-2-.21-3-.38a24.81,24.81,0,0,1-3-.68,15.56,15.56,0,0,1-2.6-1,14.66,14.66,0,0,0,.54-1.39,8.73,8.73,0,0,1,.59-1.33l.29.1c1.67.53,3.32,1,4.95,1.36a23.14,23.14,0,0,0,5.14.55,14.08,14.08,0,0,0,3.52-.48,11.69,11.69,0,0,0,3.43-1.48,8.73,8.73,0,0,0,2.59-2.58,6.68,6.68,0,0,0,1-3.78A6.92,6.92,0,0,0,64.47,80a6.51,6.51,0,0,0-1.57-2.47,10.24,10.24,0,0,0-3.37-2.19,21.94,21.94,0,0,0-5.83-1,21.75,21.75,0,0,1-3.25-.4,11.77,11.77,0,0,1-3.36-1.32,8.36,8.36,0,0,1-2.62-2.37,5.94,5.94,0,0,1-1-3.57v-.21A6.38,6.38,0,0,1,46.6,61,16,16,0,0,1,55,58.85c.81,0,1.73.06,2.3.11s1.37.17,2.06.3,1.38.32,2.08.53a16.66,16.66,0,0,1,2.23.89l-1,2.41a13.13,13.13,0,0,0-3-1.15,16.7,16.7,0,0,0-4.52-.56,19.11,19.11,0,0,0-3.55.45,9.55,9.55,0,0,0-2.72.94,5.12,5.12,0,0,0-1.81,1.59,3.79,3.79,0,0,0-.66,2.21,3.41,3.41,0,0,0,.71,2.15,6.51,6.51,0,0,0,1.78,1.59,10,10,0,0,0,2.4,1,20,20,0,0,0,2.55.33,29,29,0,0,1,5,.6,14.21,14.21,0,0,1,4.28,1.87,10.5,10.5,0,0,1,3.16,3.17,8.15,8.15,0,0,1,1.23,4.49Z"/><path class="cls-1" d="M95.8,59.21v2.93H84.35v30.3H81.51V62.14H70V59.21Z"/><path class="cls-1" d="M114.84,92.79a12.17,12.17,0,0,1-5-1,12.91,12.91,0,0,1-4-2.77,13,13,0,0,1-3.68-9V59.21H105V79.94a10.27,10.27,0,0,0,.74,3.88A9.36,9.36,0,0,0,107.75,87a9.68,9.68,0,0,0,3.13,2.12,9.92,9.92,0,0,0,4,.78,10.32,10.32,0,0,0,4-.78A10.47,10.47,0,0,0,122.11,87a9.72,9.72,0,0,0,2.2-3.15,9.43,9.43,0,0,0,.81-3.88V59.21H128V79.94a12,12,0,0,1-1,5A13.11,13.11,0,0,1,124.07,89a13.72,13.72,0,0,1-4.19,2.77A12.56,12.56,0,0,1,114.84,92.79Z"/><path class="cls-1" d="M136.17,59.13h10.38a15.28,15.28,0,0,1,6.27,1.31A16.39,16.39,0,0,1,158,64a17,17,0,0,1,3.47,5.29A16.83,16.83,0,0,1,158,87.49a16.67,16.67,0,0,1-5.14,3.56,15.28,15.28,0,0,1-6.27,1.31H136.17V62.05m23.7,13.72a13.4,13.4,0,0,0-1.06-5.32A13.92,13.92,0,0,0,156,66.09a13.48,13.48,0,0,0-4.23-3,12.58,12.58,0,0,0-5.17-1.09H139V89.43h7.54a12.72,12.72,0,0,0,5.17-1.06A13.24,13.24,0,0,0,156,85.45a13.94,13.94,0,0,0,2.86-4.34A13.29,13.29,0,0,0,159.87,75.77Z"/><path class="cls-1" d="M172.25,59.13V92.36h-2.84V59.13Z"/><path class="cls-2" d="M209.43,66.16A16.42,16.42,0,0,0,196,58.83,16.42,16.42,0,0,0,180.58,70c-.05.13-.09.26-.13.39s-.14.44-.2.65a17.69,17.69,0,0,0-.65,4.75,17.5,17.5,0,0,0,1.29,6.61s0,.09.05.13q.17.41.36.78a5,5,0,0,0,.28.57c.21.41.43.8.67,1.18a18.81,18.81,0,0,0,1.34,1.84l.53.61.56.57c.38.38.77.73,1.18,1.07l.58.45.4.29c.42.29.86.56,1.31.82h0c.42.24.86.46,1.32.67l.1,0h0a15.91,15.91,0,0,0,4.28,1.2h0l.68.07q.71.06,1.41.06c.42,0,.83,0,1.24,0a16.2,16.2,0,0,0,3.82-.78l.52-.19.08,0,.33-.14a17,17,0,0,0,10.35-15.79A17.35,17.35,0,0,0,209.43,66.16ZM191,88.88l-.55-.24-.45-.22-.39-.21c-.33-.19-.66-.38-1-.59l-.51-.36c-.17-.12-.35-.26-.52-.4l-.5-.43c-.16-.14-.32-.29-.47-.45l-.47-.48q-.19-.21-.36-.42a13.65,13.65,0,0,1-1.07-1.43c-.23-.35-.44-.72-.64-1.1-.1-.2-.21-.4-.3-.61,0,0,0,0,0,0s-.14-.32-.22-.49-.14-.34-.2-.51a14.67,14.67,0,0,1-.85-3.63v-.07c0-.2,0-.4,0-.6a.17.17,0,0,1,0-.07c0-.24,0-.47,0-.71v-.71c0-.25,0-.5.06-.74A14.3,14.3,0,0,1,185,67.62a13.74,13.74,0,0,1,2.11-2.39l.24-.21.51-.41a4.8,4.8,0,0,1,.53-.39l.27-.19.28-.18c.27-.17.56-.34.85-.49a13,13,0,0,1,6.15-1.54,13.2,13.2,0,0,1,8.9,3.48,14.45,14.45,0,0,1,2,2.27,13.88,13.88,0,0,1,1.41,2.5c.08.19.16.38.23.57a.3.3,0,0,0,0,.1c0,.09.07.18.1.28s.15.43.21.65a15.06,15.06,0,0,1,.54,2.72c0,.24,0,.48.05.73v.3c0,.14,0,.27,0,.41s0,.47,0,.71l0,.46c0,.13,0,.27,0,.4s0,.27-.05.4a13.67,13.67,0,0,1-13.36,12,13.19,13.19,0,0,1-4.37-.75Z"/></svg>