<?xml version="1.0" standalone="no"?>
<!DOCTYPE svg PUBLIC "-//W3C//DTD SVG 20010904//EN"
 "http://www.w3.org/TR/2001/REC-SVG-20010904/DTD/svg10.dtd">
<svg version="1.0" xmlns="http://www.w3.org/2000/svg"
 width="1080.000000pt" height="1080.000000pt" viewBox="0 0 1080.000000 1080.000000"
 preserveAspectRatio="xMidYMid meet">

<g transform="translate(0.000000,1080.000000) scale(0.100000,-0.100000)"
fill="#000000" stroke="none">
<path d="M1672 8403 c-83 -208 -150 -379 -148 -380 1 -2 1756 -2 3899 -1
l3896 3 -151 378 -151 377 -3597 0 -3597 0 -151 -377z"/>
<path d="M574 7246 c3 -11 69 -181 148 -378 l143 -358 1553 -2 c853 -2 1552
-1 1552 2 0 3 -67 172 -148 375 l-148 370 -1553 5 c-1526 5 -1552 5 -1547 -14z"/>
<path d="M8696 7260 l-1549 -5 -149 -370 c-81 -203 -148 -372 -148 -375 0 -3
699 -4 1552 -3 l1553 3 147 367 c82 203 147 373 145 378 -1 7 -523 8 -1551 5z"/>
<path d="M1830 5743 c0 -5 67 -174 149 -378 l148 -370 1212 -3 c1152 -2 1212
-1 1207 15 -3 10 -71 180 -150 378 l-144 360 -1211 3 c-666 1 -1211 -1 -1211
-5z"/>
<path d="M6434 5378 c-82 -204 -150 -375 -152 -380 -2 -4 542 -8 1210 -8
l1213 0 148 373 c81 204 148 375 147 380 0 4 -544 7 -1209 7 l-1209 0 -148
-372z"/>
<path d="M5992 4225 c-4 -5 -73 -174 -153 -375 l-146 -365 981 -3 c539 -1 983
1 987 5 6 7 299 735 299 744 0 10 -1962 3 -1968 -6z"/>
<path d="M2904 4098 c197 -498 240 -604 246 -611 7 -8 1970 -15 1970 -7 0 3
-67 172 -149 375 l-148 370 -985 3 -986 2 52 -132z"/>
<path d="M4100 2713 c0 -5 66 -175 147 -380 l148 -372 1025 2 1024 2 148 369
c81 203 148 373 148 378 0 4 -594 8 -1320 8 -726 0 -1320 -3 -1320 -7z"/>
</g>
</svg>
