<?xml version="1.0" standalone="no"?>
<!DOCTYPE svg PUBLIC "-//W3C//DTD SVG 20010904//EN"
 "http://www.w3.org/TR/2001/REC-SVG-20010904/DTD/svg10.dtd">
<svg version="1.0" xmlns="http://www.w3.org/2000/svg"
 width="300.000000pt" height="300.000000pt" viewBox="0 100 300.000000 100.000000"
 preserveAspectRatio="xMidYMid meet">

<g transform="translate(0.000000,300.000000) scale(0.100000,-0.100000)"
fill="#000000" stroke="none">
<path d="M405 1736 c-83 -31 -110 -105 -59 -165 27 -33 66 -47 157 -56 99 -11
153 -77 123 -150 -30 -70 -117 -97 -229 -71 -38 9 -70 16 -71 16 -2 0 -6 -9
-9 -20 -7 -28 49 -45 153 -45 67 0 92 4 119 20 90 53 112 166 45 236 -30 32
-106 59 -163 59 -43 0 -97 30 -106 60 -10 30 18 66 61 80 36 12 133 9 165 -4
26 -11 32 22 7 35 -35 19 -148 21 -193 5z"/>
<path d="M1698 1744 c-5 -4 -8 -117 -8 -252 l0 -244 113 4 c106 3 117 5 163
33 162 101 148 361 -25 438 -46 20 -229 36 -243 21z m230 -63 c142 -73 152
-272 18 -356 -43 -26 -57 -29 -130 -30 l-81 0 -3 203 -2 202 80 0 c60 0 90 -5
118 -19z"/>
<path d="M2187 1743 c-4 -3 -7 -116 -7 -250 0 -236 1 -243 20 -243 19 0 20 7
20 250 0 202 -3 250 -13 250 -8 0 -17 -3 -20 -7z"/>
<path d="M2499 1737 c-101 -38 -162 -129 -161 -243 1 -72 17 -116 62 -168 92
-104 245 -109 344 -10 149 150 56 415 -151 430 -35 3 -73 -1 -94 -9z m173 -60
c75 -41 116 -139 97 -229 -13 -58 -75 -132 -125 -148 -132 -44 -263 52 -264
193 0 32 6 72 13 90 17 40 88 105 124 113 16 3 33 7 38 9 20 7 81 -8 117 -28z"/>
<path d="M710 1720 c0 -18 7 -20 85 -20 l85 0 0 -225 c0 -218 1 -225 20 -225
19 0 20 7 20 225 l0 225 85 0 c78 0 85 2 85 20 0 19 -7 20 -190 20 -183 0
-190 -1 -190 -20z"/>
<path d="M1190 1565 c0 -155 2 -180 20 -214 67 -133 245 -143 327 -19 28 41
28 44 31 225 3 179 3 183 -17 183 -20 0 -21 -5 -21 -168 0 -188 -8 -217 -70
-259 -49 -34 -128 -32 -170 3 -55 47 -60 66 -60 254 0 163 -1 170 -20 170 -19
0 -20 -7 -20 -175z"/>
</g>
</svg>
