<?xml version="1.0" standalone="no"?>
<!DOCTYPE svg PUBLIC "-//W3C//DTD SVG 20010904//EN"
 "http://www.w3.org/TR/2001/REC-SVG-20010904/DTD/svg10.dtd">
<svg version="1.0" xmlns="http://www.w3.org/2000/svg"
 width="300.000000pt" height="300.000000pt" viewBox="0 100 300.000000 100.000000"
 preserveAspectRatio="xMidYMid meet">

<g transform="translate(0.000000,300.000000) scale(0.100000,-0.100000)"
fill="#000000" stroke="none">
<path d="M423 1495 l122 -245 117 241 c65 133 118 244 118 246 0 1 -9 3 -20 3
-16 0 -37 -33 -100 -159 -43 -88 -88 -174 -99 -192 l-19 -32 -96 192 c-86 171
-99 191 -121 191 -24 0 -20 -10 98 -245z"/>
<path d="M870 1495 l0 -245 175 0 c168 0 175 1 175 20 0 19 -7 20 -155 20
l-155 0 0 115 0 115 130 0 c123 0 130 1 130 20 0 19 -7 20 -130 20 l-131 0 3
68 3 67 148 3 c139 2 147 4 147 22 0 19 -7 20 -170 20 l-170 0 0 -245z"/>
<path d="M1310 1720 c0 -18 7 -20 85 -20 l85 0 0 -225 c0 -218 1 -225 20 -225
19 0 20 8 22 223 l3 222 83 3 c74 3 82 5 82 22 0 19 -8 20 -190 20 -183 0
-190 -1 -190 -20z"/>
<path d="M1885 1722 c-52 -24 -118 -99 -133 -150 -49 -164 65 -325 232 -324
106 0 186 51 226 144 49 114 9 249 -94 313 -63 39 -168 46 -231 17z m180 -41
c146 -66 166 -264 36 -356 -38 -27 -51 -30 -115 -30 -63 0 -78 4 -113 28 -71
49 -106 142 -84 225 23 83 111 152 196 152 22 0 58 -9 80 -19z"/>
<path d="M2320 1495 c0 -238 1 -245 20 -245 19 0 20 7 20 191 0 111 4 189 9
187 5 -1 75 -79 156 -173 81 -93 155 -179 166 -190 19 -19 19 -16 19 228 0
239 -1 247 -20 247 -19 0 -20 -8 -22 -192 l-3 -192 -168 192 c-92 106 -170
192 -172 192 -3 0 -5 -110 -5 -245z"/>
</g>
</svg>
